<svg xmlns="http://www.w3.org/2000/svg" width="186.978" height="215.5" viewBox="0 0 186.978 215.5">
  <g id="Grupo_8" data-name="Grupo 8" transform="translate(-832.5 -122.5)">
    <g id="R" transform="translate(832.5 122.5)">
      <path id="Polígono_35" data-name="Polígono 35" d="M26.937,0,53.875,46.744H0Z" transform="translate(46.744 161.625) rotate(90)" fill="#00b0ff"/>
      <path id="Polígono_38" data-name="Polígono 38" d="M26.937,0,53.875,46.744H0Z" transform="translate(46.744 107.75) rotate(90)" fill="#00b0ff"/>
      <path id="Polígono_40" data-name="Polígono 40" d="M26.937,0,53.875,46.744H0Z" transform="translate(46.744 53.875) rotate(90)" fill="#00b0ff"/>
      <path id="Polígono_41" data-name="Polígono 41" d="M26.937,0,53.875,46.744H0Z" transform="translate(0 80.813) rotate(-90)" fill="#00b0ff"/>
      <path id="Polígono_43" data-name="Polígono 43" d="M26.937,0,53.875,46.744H0Z" transform="translate(46.744 53.875) rotate(-90)" fill="#00b0ff"/>
      <path id="Polígono_44" data-name="Polígono 44" d="M26.937,0,53.875,46.744H0Z" transform="translate(140.233) rotate(90)" fill="#00b0ff"/>
      <path id="Polígono_46" data-name="Polígono 46" d="M26.937,0,53.875,46.744H0Z" transform="translate(186.978 26.938) rotate(90)" fill="#00b0ff"/>
      <path id="Polígono_45" data-name="Polígono 45" d="M26.937,0,53.875,46.744H0Z" transform="translate(93.489 80.813) rotate(-90)" fill="#00b0ff"/>
      <path id="Polígono_47" data-name="Polígono 47" d="M26.937,0,53.875,46.744H0Z" transform="translate(140.234 107.75) rotate(-90)" fill="#00b0ff"/>
      <path id="Polígono_49" data-name="Polígono 49" d="M26.937,0,53.875,46.744H0Z" transform="translate(93.489 134.688) rotate(-90)" fill="#00b0ff"/>
      <path id="Polígono_48" data-name="Polígono 48" d="M26.937,0,53.875,46.744H0Z" transform="translate(186.978 80.813) rotate(90)" fill="#00b0ff"/>
      <path id="Polígono_50" data-name="Polígono 50" d="M26.937,0,53.875,46.744H0Z" transform="translate(140.234 107.75) rotate(90)" fill="#00b0ff"/>
      <path id="Polígono_53" data-name="Polígono 53" d="M26.937,0,53.875,46.744H0Z" transform="translate(186.978 134.688) rotate(90)" fill="#00b0ff"/>
      <path id="Polígono_51" data-name="Polígono 51" d="M26.937,0,53.875,46.744H0Z" transform="translate(93.489 188.563) rotate(-90)" fill="#00b0ff"/>
      <path id="Polígono_52" data-name="Polígono 52" d="M26.937,0,53.875,46.744H0Z" transform="translate(140.234 215.5) rotate(-90)" fill="#00b0ff"/>
      <path id="Polígono_42" data-name="Polígono 42" d="M26.937,0,53.875,46.744H0Z" transform="translate(93.489 26.938) rotate(90)" fill="#00b0ff"/>
      <path id="Polígono_37" data-name="Polígono 37" d="M26.937,0,53.875,46.744H0Z" transform="translate(0 188.563) rotate(-90)" fill="#00b0ff"/>
      <path id="Polígono_39" data-name="Polígono 39" d="M26.937,0,53.875,46.744H0Z" transform="translate(0 134.688) rotate(-90)" fill="#00b0ff"/>
    </g>
    <g id="R-2" data-name="R" transform="translate(832.5 122.5)">
      <path id="Polígono_35-2" data-name="Polígono 35" d="M26.937,0,53.875,46.744H0Z" transform="translate(46.744 161.625) rotate(90)" fill="#00b0ff"/>
      <path id="Polígono_38-2" data-name="Polígono 38" d="M26.937,0,53.875,46.744H0Z" transform="translate(46.744 107.75) rotate(90)" fill="#00b0ff"/>
      <path id="Polígono_40-2" data-name="Polígono 40" d="M26.937,0,53.875,46.744H0Z" transform="translate(46.744 53.875) rotate(90)" fill="#00b0ff"/>
      <path id="Polígono_41-2" data-name="Polígono 41" d="M26.937,0,53.875,46.744H0Z" transform="translate(0 80.813) rotate(-90)" fill="#00b0ff"/>
      <path id="Polígono_43-2" data-name="Polígono 43" d="M26.937,0,53.875,46.744H0Z" transform="translate(46.744 53.875) rotate(-90)" fill="#00b0ff"/>
      <path id="Polígono_44-2" data-name="Polígono 44" d="M26.937,0,53.875,46.744H0Z" transform="translate(140.233) rotate(90)" fill="#00b0ff"/>
      <path id="Polígono_46-2" data-name="Polígono 46" d="M26.937,0,53.875,46.744H0Z" transform="translate(186.978 26.938) rotate(90)" fill="#00b0ff"/>
      <path id="Polígono_45-2" data-name="Polígono 45" d="M26.937,0,53.875,46.744H0Z" transform="translate(93.489 80.813) rotate(-90)" fill="#00b0ff"/>
      <path id="Polígono_47-2" data-name="Polígono 47" d="M26.937,0,53.875,46.744H0Z" transform="translate(140.234 107.75) rotate(-90)" fill="#00b0ff"/>
      <path id="Polígono_49-2" data-name="Polígono 49" d="M26.937,0,53.875,46.744H0Z" transform="translate(93.489 134.688) rotate(-90)" fill="#00b0ff"/>
      <path id="Polígono_48-2" data-name="Polígono 48" d="M26.937,0,53.875,46.744H0Z" transform="translate(186.978 80.813) rotate(90)" fill="#00b0ff"/>
      <path id="Polígono_50-2" data-name="Polígono 50" d="M26.937,0,53.875,46.744H0Z" transform="translate(140.234 107.75) rotate(90)" fill="#00b0ff"/>
      <path id="Polígono_53-2" data-name="Polígono 53" d="M26.937,0,53.875,46.744H0Z" transform="translate(186.978 134.688) rotate(90)" fill="#00b0ff"/>
      <path id="Polígono_51-2" data-name="Polígono 51" d="M26.937,0,53.875,46.744H0Z" transform="translate(93.489 188.563) rotate(-90)" fill="#00b0ff"/>
      <path id="Polígono_52-2" data-name="Polígono 52" d="M26.937,0,53.875,46.744H0Z" transform="translate(140.234 215.5) rotate(-90)" fill="#00b0ff"/>
      <path id="Polígono_42-2" data-name="Polígono 42" d="M26.937,0,53.875,46.744H0Z" transform="translate(93.489 26.938) rotate(90)" fill="#00b0ff"/>
      <path id="Polígono_37-2" data-name="Polígono 37" d="M26.937,0,53.875,46.744H0Z" transform="translate(0 188.563) rotate(-90)" fill="#00b0ff"/>
      <path id="Polígono_39-2" data-name="Polígono 39" d="M26.937,0,53.875,46.744H0Z" transform="translate(0 134.688) rotate(-90)" fill="#00b0ff"/>
    </g>
    <g id="R-3" data-name="R" transform="translate(832.5 122.5)">
      <path id="Polígono_35-3" data-name="Polígono 35" d="M26.937,0,53.875,46.744H0Z" transform="translate(46.744 161.625) rotate(90)" fill="#00b0ff"/>
      <path id="Polígono_38-3" data-name="Polígono 38" d="M26.937,0,53.875,46.744H0Z" transform="translate(46.744 107.75) rotate(90)" fill="#00b0ff"/>
      <path id="Polígono_40-3" data-name="Polígono 40" d="M26.937,0,53.875,46.744H0Z" transform="translate(46.744 53.875) rotate(90)" fill="#00b0ff"/>
      <path id="Polígono_41-3" data-name="Polígono 41" d="M26.937,0,53.875,46.744H0Z" transform="translate(0 80.813) rotate(-90)" fill="#00b0ff"/>
      <path id="Polígono_43-3" data-name="Polígono 43" d="M26.937,0,53.875,46.744H0Z" transform="translate(46.744 53.875) rotate(-90)" fill="#00b0ff"/>
      <path id="Polígono_44-3" data-name="Polígono 44" d="M26.937,0,53.875,46.744H0Z" transform="translate(140.233) rotate(90)" fill="#00b0ff"/>
      <path id="Polígono_46-3" data-name="Polígono 46" d="M26.937,0,53.875,46.744H0Z" transform="translate(186.978 26.938) rotate(90)" fill="#00b0ff"/>
      <path id="Polígono_45-3" data-name="Polígono 45" d="M26.937,0,53.875,46.744H0Z" transform="translate(93.489 80.813) rotate(-90)" fill="#00b0ff"/>
      <path id="Polígono_47-3" data-name="Polígono 47" d="M26.937,0,53.875,46.744H0Z" transform="translate(140.234 107.75) rotate(-90)" fill="#00b0ff"/>
      <path id="Polígono_49-3" data-name="Polígono 49" d="M26.937,0,53.875,46.744H0Z" transform="translate(93.489 134.688) rotate(-90)" fill="#00b0ff"/>
      <path id="Polígono_48-3" data-name="Polígono 48" d="M26.937,0,53.875,46.744H0Z" transform="translate(186.978 80.813) rotate(90)" fill="#00b0ff"/>
      <path id="Polígono_50-3" data-name="Polígono 50" d="M26.937,0,53.875,46.744H0Z" transform="translate(140.234 107.75) rotate(90)" fill="#00b0ff"/>
      <path id="Polígono_53-3" data-name="Polígono 53" d="M26.937,0,53.875,46.744H0Z" transform="translate(186.978 134.688) rotate(90)" fill="#00b0ff"/>
      <path id="Polígono_51-3" data-name="Polígono 51" d="M26.937,0,53.875,46.744H0Z" transform="translate(93.489 188.563) rotate(-90)" fill="#00b0ff"/>
      <path id="Polígono_52-3" data-name="Polígono 52" d="M26.937,0,53.875,46.744H0Z" transform="translate(140.234 215.5) rotate(-90)" fill="#00b0ff"/>
      <path id="Polígono_42-3" data-name="Polígono 42" d="M26.937,0,53.875,46.744H0Z" transform="translate(93.489 26.938) rotate(90)" fill="#00b0ff"/>
      <path id="Polígono_37-3" data-name="Polígono 37" d="M26.937,0,53.875,46.744H0Z" transform="translate(0 188.563) rotate(-90)" fill="#00b0ff"/>
      <path id="Polígono_39-3" data-name="Polígono 39" d="M26.937,0,53.875,46.744H0Z" transform="translate(0 134.688) rotate(-90)" fill="#00b0ff"/>
    </g>
  </g>
</svg>
